<svg width="600" height="200" viewBox="0 0 600 200" fill="none" style="margin: auto;height: 100%;" xmlns="http://www.w3.org/2000/svg">
  <g id="Moon">
    <path id="Moon_2" d="M300 168C338.66 168 370 136.66 370 98C370 59.3401 338.66 28 300 28C261.34 28 230 59.3401 230 98C230 136.66 261.34 168 300 168Z" fill="#F2F2F2" />

    <mask id="mask0" mask-type="alpha" maskUnits="userSpaceOnUse" x="230" y="28" width="140" height="140">
      <path id="Moon_3" d="M300 168C338.66 168 370 136.66 370 98C370 59.3401 338.66 28 300 28C261.34 28 230 59.3401 230 98C230 136.66 261.34 168 300 168Z" fill="#F2F2F2" />
    </mask>

    <g mask="url(#mask0)">
      <g transform="translate(0 20)" id="Ground">
        <path fill="gray" d="M98 92C105.18 92 111 86.1797 111 79C111 71.8203 105.18 66 98 66C90.8203 66 85 71.8203 85 79C85 86.1797 90.8203 92 98 92Z M135 41C142.18 41 148 35.1797 148 28C148 20.8203 142.18 15 135 15C127.82 15 122 20.8203 122 28C122 35.1797 127.82 41 135 41Z M61 34C65.9706 34 70 29.9706 70 25C70 20.0294 65.9706 16 61 16C56.0294 16 52 20.0294 52 25C52 29.9706 56.0294 34 61 34Z M34.0966 103.193C38.016 103.193 41.1933 100.016 41.1933 96.0966C41.1933 92.1773 38.016 89 34.0966 89C30.1773 89 27 92.1773 27 96.0966C27 100.016 30.1773 103.193 34.0966 103.193Z M-15.9034 137.193C-11.984 137.193 -8.8067 134.016 -8.8067 130.097C-8.8067 126.177 -11.984 123 -15.9034 123C-19.8227 123 -23 126.177 -23 130.097C-23 134.016 -19.8227 137.193 -15.9034 137.193Z M-14 70C-9.02943 70 -5 65.9706 -5 61C-5 56.0294 -9.02943 52 -14 52C-18.9706 52 -23 56.0294 -23 61C-23 65.9706 -18.9706 70 -14 70Z">
          <animateTransform attributeName="transform" type="translate" repeatCount="indefinite" dur="4s" keyTimes="0;1" from="0" to="250"></animateTransform>
        </path>
        <path fill="gray" d="M98 92C105.18 92 111 86.1797 111 79C111 71.8203 105.18 66 98 66C90.8203 66 85 71.8203 85 79C85 86.1797 90.8203 92 98 92Z M135 41C142.18 41 148 35.1797 148 28C148 20.8203 142.18 15 135 15C127.82 15 122 20.8203 122 28C122 35.1797 127.82 41 135 41Z M61 34C65.9706 34 70 29.9706 70 25C70 20.0294 65.9706 16 61 16C56.0294 16 52 20.0294 52 25C52 29.9706 56.0294 34 61 34Z M34.0966 103.193C38.016 103.193 41.1933 100.016 41.1933 96.0966C41.1933 92.1773 38.016 89 34.0966 89C30.1773 89 27 92.1773 27 96.0966C27 100.016 30.1773 103.193 34.0966 103.193Z M-15.9034 137.193C-11.984 137.193 -8.8067 134.016 -8.8067 130.097C-8.8067 126.177 -11.984 123 -15.9034 123C-19.8227 123 -23 126.177 -23 130.097C-23 134.016 -19.8227 137.193 -15.9034 137.193Z M-14 70C-9.02943 70 -5 65.9706 -5 61C-5 56.0294 -9.02943 52 -14 52C-18.9706 52 -23 56.0294 -23 61C-23 65.9706 -18.9706 70 -14 70Z">
          <animateTransform attributeName="transform" type="translate" repeatCount="indefinite" dur="4s" keyTimes="0;1" from="250" to="500"></animateTransform>
        </path>
      </g>
    </g>
  </g>
</svg>