<svg width="600" height="200" viewBox="0 0 600 200" fill="none" style="margin: auto;height: 100%;" xmlns="http://www.w3.org/2000/svg">
  <g id="Planet">
    <path id="Planet_2" d="M300 168C338.66 168 370 136.66 370 98C370 59.3401 338.66 28 300 28C261.34 28 230 59.3401 230 98C230 136.66 261.34 168 300 168Z" fill="#218BD7" />

    <mask id="mask0" mask-type="alpha" maskUnits="userSpaceOnUse" x="230" y="28" width="140" height="140">
      <path id="Planet_3" d="M300 168C338.66 168 370 136.66 370 98C370 59.3401 338.66 28 300 28C261.34 28 230 59.3401 230 98C230 136.66 261.34 168 300 168Z" fill="#218BD7" />
    </mask>

    <g mask="url(#mask0)">
      <g id="Ground">
        <path fill="#1BC47D" d="M-81 99V93C-81 90.2386 -78.7614 88 -76 88H-58C-55.2386 88 -53 90.2386 -53 93V99C-53 101.761 -55.2386 104 -58 104H-76C-78.7614 104 -81 101.761 -81 99Z M-87 78V68C-87 65.2386 -84.7614 63 -82 63H-42C-39.2386 63 -37 65.2386 -37 68V78C-37 80.7614 -39.2386 83 -42 83H-82C-84.7614 83 -87 80.7614 -87 78Z M-44 146.5H-48.5C-50.7091 146.5 -52.5 144.709 -52.5 142.5V141.5C-52.5 139.291 -54.2909 137.5 -56.5 137.5H-60C-62.2091 137.5 -64 135.709 -64 133.5V129.5C-64 127.291 -65.7909 125.5 -68 125.5H-72C-74.2091 125.5 -76 123.709 -76 121.5V115.5C-76 113.291 -74.2091 111.5 -72 111.5H-49H-44C-41.7909 111.5 -40 113.291 -40 115.5V119V142.5C-40 144.709 -41.7909 146.5 -44 146.5Z M-54.5 32V37.5C-54.5 40.2614 -52.2614 42.5 -49.5 42.5H7.5C10.2614 42.5 12.5 40.2614 12.5 37.5V32C12.5 29.2386 10.2614 27 7.5 27H-49.5C-52.2614 27 -54.5 29.2386 -54.5 32Z M-17 73V61C-17 58.2386 -14.7614 56 -12 56H51C53.7614 56 56 58.2386 56 61V73C56 75.7614 53.7614 78 51 78H15.75C14.2312 78 13 79.2312 13 80.75C13 82.2688 14.2312 83.5 15.75 83.5H21.5C24.2614 83.5 26.5 85.7386 26.5 88.5V117C26.5 119.761 24.2614 122 21.5 122H14C11.2386 122 9 124.239 9 127V137.5C9 140.261 6.76142 142.5 4 142.5H-6C-7.65685 142.5 -9 141.157 -9 139.5C-9 137.843 -10.3431 136.5 -12 136.5H-13.75C-16.3734 136.5 -18.5 134.373 -18.5 131.75V88.5C-18.5 85.7386 -16.2614 83.5 -13.5 83.5H-7.75C-6.23122 83.5 -5 82.2688 -5 80.75C-5 79.2312 -6.23122 78 -7.75 78H-12C-14.7614 78 -17 75.7614 -17 73Z M86 116.5V95C86 92.2386 83.7614 90 81 90H48.5C45.7386 90 43.5 92.2386 43.5 95V131.5C43.5 134.261 45.7386 136.5 48.5 136.5H60.5C63.2614 136.5 65.5 134.261 65.5 131.5V126.5C65.5 123.739 67.7386 121.5 70.5 121.5H81C83.7614 121.5 86 119.261 86 116.5Z M10 169V163C10 160.239 12.2386 158 15 158H73C75.7614 158 78 160.239 78 163V169C78 171.761 75.7614 174 73 174H15C12.2386 174 10 171.761 10 169Z">
          <animateTransform attributeName="transform" type="translate" repeatCount="indefinite" dur="4s" keyTimes="0;1" from="0" to="250"></animateTransform>
        </path>
        <path fill="#1BC47D" d="M-81 99V93C-81 90.2386 -78.7614 88 -76 88H-58C-55.2386 88 -53 90.2386 -53 93V99C-53 101.761 -55.2386 104 -58 104H-76C-78.7614 104 -81 101.761 -81 99Z M-87 78V68C-87 65.2386 -84.7614 63 -82 63H-42C-39.2386 63 -37 65.2386 -37 68V78C-37 80.7614 -39.2386 83 -42 83H-82C-84.7614 83 -87 80.7614 -87 78Z M-44 146.5H-48.5C-50.7091 146.5 -52.5 144.709 -52.5 142.5V141.5C-52.5 139.291 -54.2909 137.5 -56.5 137.5H-60C-62.2091 137.5 -64 135.709 -64 133.5V129.5C-64 127.291 -65.7909 125.5 -68 125.5H-72C-74.2091 125.5 -76 123.709 -76 121.5V115.5C-76 113.291 -74.2091 111.5 -72 111.5H-49H-44C-41.7909 111.5 -40 113.291 -40 115.5V119V142.5C-40 144.709 -41.7909 146.5 -44 146.5Z M-54.5 32V37.5C-54.5 40.2614 -52.2614 42.5 -49.5 42.5H7.5C10.2614 42.5 12.5 40.2614 12.5 37.5V32C12.5 29.2386 10.2614 27 7.5 27H-49.5C-52.2614 27 -54.5 29.2386 -54.5 32Z M-17 73V61C-17 58.2386 -14.7614 56 -12 56H51C53.7614 56 56 58.2386 56 61V73C56 75.7614 53.7614 78 51 78H15.75C14.2312 78 13 79.2312 13 80.75C13 82.2688 14.2312 83.5 15.75 83.5H21.5C24.2614 83.5 26.5 85.7386 26.5 88.5V117C26.5 119.761 24.2614 122 21.5 122H14C11.2386 122 9 124.239 9 127V137.5C9 140.261 6.76142 142.5 4 142.5H-6C-7.65685 142.5 -9 141.157 -9 139.5C-9 137.843 -10.3431 136.5 -12 136.5H-13.75C-16.3734 136.5 -18.5 134.373 -18.5 131.75V88.5C-18.5 85.7386 -16.2614 83.5 -13.5 83.5H-7.75C-6.23122 83.5 -5 82.2688 -5 80.75C-5 79.2312 -6.23122 78 -7.75 78H-12C-14.7614 78 -17 75.7614 -17 73Z M86 116.5V95C86 92.2386 83.7614 90 81 90H48.5C45.7386 90 43.5 92.2386 43.5 95V131.5C43.5 134.261 45.7386 136.5 48.5 136.5H60.5C63.2614 136.5 65.5 134.261 65.5 131.5V126.5C65.5 123.739 67.7386 121.5 70.5 121.5H81C83.7614 121.5 86 119.261 86 116.5Z M10 169V163C10 160.239 12.2386 158 15 158H73C75.7614 158 78 160.239 78 163V169C78 171.761 75.7614 174 73 174H15C12.2386 174 10 171.761 10 169Z">
          <animateTransform attributeName="transform" type="translate" repeatCount="indefinite" dur="4s" keyTimes="0;1" from="250" to="500"></animateTransform>
        </path>

      </g>
      <g id="Cloud" transform="translate(0 50)">
        <path fill="white" d="M8 52H-12C-14.7614 52 -17 49.7614 -17 47C-17 44.2386 -14.7614 42 -12 42H8C10.7614 42 13 44.2386 13 47C13 49.7614 10.7614 52 8 52Z M3.5 69.5H-3.5C-5.70914 69.5 -7.5 67.7091 -7.5 65.5C-7.5 63.2909 -5.70914 61.5 -3.5 61.5H20C22.2091 61.5 24 63.2909 24 65.5C24 67.7091 22.2091 69.5 20 69.5H19C17.067 69.5 15.5 71.067 15.5 73C15.5 74.933 17.067 76.5 19 76.5H23.5C26.2614 76.5 28.5 78.7386 28.5 81.5V83.5C28.5 86.2614 26.2614 88.5 23.5 88.5H-11.5C-14.2614 88.5 -16.5 86.2614 -16.5 83.5V81.5C-16.5 78.7386 -14.2614 76.5 -11.5 76.5H3.5C5.433 76.5 7 74.933 7 73C7 71.067 5.433 69.5 3.5 69.5Z M14 9.5V5C14 2.23858 16.2386 0 19 0H62C64.7614 0 67 2.23858 67 5V17C67 19.7614 64.7614 22 62 22H40.25C38.1789 22 36.5 20.3211 36.5 18.25C36.5 16.1789 34.8211 14.5 32.75 14.5H19C16.2386 14.5 14 12.2614 14 9.5Z M48.5 45V43.5C48.5 40.7386 50.7386 38.5 53.5 38.5H71C73.7614 38.5 76 40.7386 76 43.5V45C76 47.7614 73.7614 50 71 50H53.5C50.7386 50 48.5 47.7614 48.5 45Z M62 101H57C54.2386 101 52 98.7614 52 96V74C52 71.2386 54.2386 69 57 69H63.75C65.5449 69 67 70.4551 67 72.25C67 74.0449 68.4551 75.5 70.25 75.5H73C75.2091 75.5 77 73.7091 77 71.5C77 69.2909 78.7909 67.5 81 67.5H82.5C85.2614 67.5 87.5 69.7386 87.5 72.5V87C87.5 89.7614 85.2614 92 82.5 92H80.5C78.567 92 77 90.433 77 88.5C77 86.567 75.433 85 73.5 85H72C69.2386 85 67 87.2386 67 90V96C67 98.7614 64.7614 101 62 101Z M95.5 44.5V30.5C95.5 27.7386 97.7386 25.5 100.5 25.5H140.5C143.261 25.5 145.5 27.7386 145.5 30.5V44.5C145.5 47.2614 143.261 49.5 140.5 49.5H100.5C97.7386 49.5 95.5 47.2614 95.5 44.5Z">
          <animateTransform attributeName="transform" type="translate" repeatCount="indefinite" dur="4s" keyTimes="0;1" from="0" to="300"></animateTransform>
        </path>
        <path fill="white" d="M8 52H-12C-14.7614 52 -17 49.7614 -17 47C-17 44.2386 -14.7614 42 -12 42H8C10.7614 42 13 44.2386 13 47C13 49.7614 10.7614 52 8 52Z M3.5 69.5H-3.5C-5.70914 69.5 -7.5 67.7091 -7.5 65.5C-7.5 63.2909 -5.70914 61.5 -3.5 61.5H20C22.2091 61.5 24 63.2909 24 65.5C24 67.7091 22.2091 69.5 20 69.5H19C17.067 69.5 15.5 71.067 15.5 73C15.5 74.933 17.067 76.5 19 76.5H23.5C26.2614 76.5 28.5 78.7386 28.5 81.5V83.5C28.5 86.2614 26.2614 88.5 23.5 88.5H-11.5C-14.2614 88.5 -16.5 86.2614 -16.5 83.5V81.5C-16.5 78.7386 -14.2614 76.5 -11.5 76.5H3.5C5.433 76.5 7 74.933 7 73C7 71.067 5.433 69.5 3.5 69.5Z M14 9.5V5C14 2.23858 16.2386 0 19 0H62C64.7614 0 67 2.23858 67 5V17C67 19.7614 64.7614 22 62 22H40.25C38.1789 22 36.5 20.3211 36.5 18.25C36.5 16.1789 34.8211 14.5 32.75 14.5H19C16.2386 14.5 14 12.2614 14 9.5Z M48.5 45V43.5C48.5 40.7386 50.7386 38.5 53.5 38.5H71C73.7614 38.5 76 40.7386 76 43.5V45C76 47.7614 73.7614 50 71 50H53.5C50.7386 50 48.5 47.7614 48.5 45Z M62 101H57C54.2386 101 52 98.7614 52 96V74C52 71.2386 54.2386 69 57 69H63.75C65.5449 69 67 70.4551 67 72.25C67 74.0449 68.4551 75.5 70.25 75.5H73C75.2091 75.5 77 73.7091 77 71.5C77 69.2909 78.7909 67.5 81 67.5H82.5C85.2614 67.5 87.5 69.7386 87.5 72.5V87C87.5 89.7614 85.2614 92 82.5 92H80.5C78.567 92 77 90.433 77 88.5C77 86.567 75.433 85 73.5 85H72C69.2386 85 67 87.2386 67 90V96C67 98.7614 64.7614 101 62 101Z M95.5 44.5V30.5C95.5 27.7386 97.7386 25.5 100.5 25.5H140.5C143.261 25.5 145.5 27.7386 145.5 30.5V44.5C145.5 47.2614 143.261 49.5 140.5 49.5H100.5C97.7386 49.5 95.5 47.2614 95.5 44.5Z">
          <animateTransform attributeName="transform" type="translate" repeatCount="indefinite" dur="4s" keyTimes="0;1" from="300" to="600"></animateTransform>
        </path>
      </g>
    </g>
  </g>
</svg>