<svg width="1453" height="848" viewBox="0 0 1453 848" fill="none" xmlns="http://www.w3.org/2000/svg">
  <g filter="url(#filter0_d)">
    <path d="M1449 0H4V221.539C292.298 386.927 558.764 228.263 642.768 321.891C726.772 415.519 604.161 546.163 658.813 718.902C713.464 891.642 951.354 846.065 1449 786.402V0Z" fill="url(#paint0_linear)" />
  </g>

  <path d="M671 236C671 238.761 668.761 241 666 241C663.239 241 661 238.761 661 236C661 233.239 663.239 231 666 231C668.761 231 671 233.239 671 236Z M1101 155C1101 157.761 1098.76 160 1096 160C1093.24 160 1091 157.761 1091 155C1091 152.239 1093.24 150 1096 150C1098.76 150 1101 152.239 1101 155Z M775 693C775 695.761 772.761 698 770 698C767.239 698 765 695.761 765 693C765 690.239 767.239 688 770 688C772.761 688 775 690.239 775 693Z M227 205C227 207.761 224.761 210 222 210C219.239 210 217 207.761 217 205C217 202.239 219.239 200 222 200C224.761 200 227 202.239 227 205Z M1400 593C1400 595.761 1397.76 598 1395 598C1392.24 598 1390 595.761 1390 593C1390 590.239 1392.24 588 1395 588C1397.76 588 1400 590.239 1400 593Z" fill="#E1E1E1">
    <animate id="animation1" attributeName="opacity" values="1;0;1" dur="4s" begin="0s;animation2.end" />
  </path>

  <path d="M59 111.5C59 112.881 57.8807 114 56.5 114C55.1193 114 54 112.881 54 111.5C54 110.119 55.1193 109 56.5 109C57.8807 109 59 110.119 59 111.5Z M1385 238.5C1385 239.881 1383.88 241 1382.5 241C1381.12 241 1380 239.881 1380 238.5C1380 237.119 1381.12 236 1382.5 236C1383.88 236 1385 237.119 1385 238.5Z M659 111.5C659 112.881 657.881 114 656.5 114C655.119 114 654 112.881 654 111.5C654 110.119 655.119 109 656.5 109C657.881 109 659 110.119 659 111.5Z M860 197.5C860 198.881 858.881 200 857.5 200C856.119 200 855 198.881 855 197.5C855 196.119 856.119 195 857.5 195C858.881 195 860 196.119 860 197.5Z M1264 421.5C1264 422.881 1262.88 424 1261.5 424C1260.12 424 1259 422.881 1259 421.5C1259 420.119 1260.12 419 1261.5 419C1262.88 419 1264 420.119 1264 421.5Z" fill="white">
    <animate id="animation2" attributeName="opacity" values="1;0;1" dur="4s" begin="animation1.end" />
  </path>

  <defs>
    <filter id="filter0_d" x="0" y="0" width="1453" height="848" filterUnits="userSpaceOnUse" color-interpolation-filters="sRGB">
      <feFlood flood-opacity="0" result="BackgroundImageFix" />
      <feColorMatrix in="SourceAlpha" type="matrix" values="0 0 0 0 0 0 0 0 0 0 0 0 0 0 0 0 0 0 127 0" />
      <feOffset dy="4" />
      <feGaussianBlur stdDeviation="2" />
      <feColorMatrix type="matrix" values="0 0 0 0 0 0 0 0 0 0 0 0 0 0 0 0 0 0 0.25 0" />
      <feBlend mode="normal" in2="BackgroundImageFix" result="effect1_dropShadow" />
      <feBlend mode="normal" in="SourceGraphic" in2="effect1_dropShadow" result="shape" />
    </filter>
    <linearGradient id="paint0_linear" x1="726.5" y1="0" x2="726.5" y2="750.474" gradientUnits="userSpaceOnUse">
      <stop />
      <stop offset="0.53125" stop-color="#0B013C" />
      <stop offset="1" stop-color="#130A80" />
    </linearGradient>
  </defs>
</svg>