<svg width="600" height="200" viewBox="0 0 600 200" fill="none" style="margin: auto;height: 100%;" xmlns="http://www.w3.org/2000/svg">
  <g id="Planet">
    <path id="Planet_2" d="M300 168C338.66 168 370 136.66 370 98C370 59.3401 338.66 28 300 28C261.34 28 230 59.3401 230 98C230 136.66 261.34 168 300 168Z" fill="#DE4625" />

    <mask id="mask0" mask-type="alpha" maskUnits="userSpaceOnUse" x="230" y="28" width="140" height="140">
      <path id="Planet_3" d="M300 168C338.66 168 370 136.66 370 98C370 59.3401 338.66 28 300 28C261.34 28 230 59.3401 230 98C230 136.66 261.34 168 300 168Z" fill="#DE4625" />
    </mask>

    <g mask="url(#mask0)">
      <g transform="translate(0 20)" id="Ground">
        <path fill="#820000" d="M93 76.5C93 72.3579 96.3579 69 100.5 69H160.5C164.642 69 168 72.3579 168 76.5C168 80.6421 164.642 84 160.5 84H100.5C96.3579 84 93 80.6421 93 76.5Z M83.5 40C83.5 31.9919 89.9919 25.5 98 25.5H148C156.008 25.5 162.5 31.9919 162.5 40C162.5 48.0081 156.008 54.5 148 54.5H98C89.9919 54.5 83.5 48.0081 83.5 40Z M57 111.662C57 106.139 61.4772 101.662 67 101.662H126C131.523 101.662 136 106.139 136 111.662C136 117.185 131.523 121.662 126 121.662H67C61.4772 121.662 57 117.185 57 111.662Z M-27 23C-27 19.134 -23.866 16 -20 16H52C55.866 16 59 19.134 59 23C59 26.866 55.866 30 52 30H-20C-23.866 30 -27 26.866 -27 23Z M-15.5 62C-15.5 56.4772 -11.0229 52 -5.5 52H55.5C61.0228 52 65.5 56.4772 65.5 62C65.5 67.5228 61.0228 72 55.5 72H-5.5C-11.0229 72 -15.5 67.5228 -15.5 62Z M-46.5 84C-46.5 80.4101 -43.5899 77.5 -40 77.5H27C30.5899 77.5 33.5 80.4101 33.5 84C33.5 87.5899 30.5899 90.5 27 90.5H-40C-43.5899 90.5 -46.5 87.5899 -46.5 84Z M-43.5 111C-43.5 108.239 -41.2614 106 -38.5 106H-6.5C-3.73857 106 -1.5 108.239 -1.5 111C-1.5 113.761 -3.73857 116 -6.5 116H-38.5C-41.2614 116 -43.5 113.761 -43.5 111Z">
          <animateTransform attributeName="transform" type="translate" repeatCount="indefinite" dur="4s" keyTimes="0;1" from="0" to="250"></animateTransform>
        </path>
        <path fill="#820000" d="M93 76.5C93 72.3579 96.3579 69 100.5 69H160.5C164.642 69 168 72.3579 168 76.5C168 80.6421 164.642 84 160.5 84H100.5C96.3579 84 93 80.6421 93 76.5Z M83.5 40C83.5 31.9919 89.9919 25.5 98 25.5H148C156.008 25.5 162.5 31.9919 162.5 40C162.5 48.0081 156.008 54.5 148 54.5H98C89.9919 54.5 83.5 48.0081 83.5 40Z M57 111.662C57 106.139 61.4772 101.662 67 101.662H126C131.523 101.662 136 106.139 136 111.662C136 117.185 131.523 121.662 126 121.662H67C61.4772 121.662 57 117.185 57 111.662Z M-27 23C-27 19.134 -23.866 16 -20 16H52C55.866 16 59 19.134 59 23C59 26.866 55.866 30 52 30H-20C-23.866 30 -27 26.866 -27 23Z M-15.5 62C-15.5 56.4772 -11.0229 52 -5.5 52H55.5C61.0228 52 65.5 56.4772 65.5 62C65.5 67.5228 61.0228 72 55.5 72H-5.5C-11.0229 72 -15.5 67.5228 -15.5 62Z M-46.5 84C-46.5 80.4101 -43.5899 77.5 -40 77.5H27C30.5899 77.5 33.5 80.4101 33.5 84C33.5 87.5899 30.5899 90.5 27 90.5H-40C-43.5899 90.5 -46.5 87.5899 -46.5 84Z M-43.5 111C-43.5 108.239 -41.2614 106 -38.5 106H-6.5C-3.73857 106 -1.5 108.239 -1.5 111C-1.5 113.761 -3.73857 116 -6.5 116H-38.5C-41.2614 116 -43.5 113.761 -43.5 111Z">
          <animateTransform attributeName="transform" type="translate" repeatCount="indefinite" dur="4s" keyTimes="0;1" from="250" to="500"></animateTransform>
        </path>
      </g>
    </g>
  </g>
</svg>